# xmcd CD database file
#
# Track frame offsets:
#	150
#	15272
#	30549
#	44239
#	58475
#	73202
#	84749
#	99788
#	114736
#	127387
#	141887
#	156956
#
# Disc length: 2283 seconds
#
# Revision: 0
# Processed by: cddbd v1.5.1PL0 Copyright (c) Steve Scherf et al.
# Submitted via: CDex 1.51
#
DISCID=b208e90c
DTITLE=Jazz - Jive at Five Jazz
DYEAR=1900
DGENRE=Jazz
TTITLE0=New Artist - Track04
TTITLE1=New Artist - Track01
TTITLE2=New Artist - Track02
TTITLE3=New Artist - Track03
TTITLE4=New Artist - Track04
TTITLE5=New Artist - Track11
TTITLE6=New Artist - Track05
TTITLE7=New Artist - Track06
TTITLE8=New Artist - Track07
TTITLE9=New Artist - Track08
TTITLE10=New Artist - Track09
TTITLE11=New Artist - Track05
EXTD=
EXTT0=
EXTT1=
EXTT2=
EXTT3=
EXTT4=
EXTT5=
EXTT6=
EXTT7=
EXTT8=
EXTT9=
EXTT10=
EXTT11=
PLAYORDER=
